solid OpenSCAD_Model
  facet normal 0.587785 0.809017 -0
    outer loop
      vertex 18.4011 20.4365 0
      vertex 13.75 23.8157 5
      vertex 18.4011 20.4365 5
    endloop
  endfacet
  facet normal 0.587785 0.809017 0
    outer loop
      vertex 13.75 23.8157 5
      vertex 18.4011 20.4365 0
      vertex 13.75 23.8157 0
    endloop
  endfacet
  facet normal 0.406737 0.913545 -0
    outer loop
      vertex 13.75 23.8157 0
      vertex 8.49797 26.1541 5
      vertex 13.75 23.8157 5
    endloop
  endfacet
  facet normal 0.406737 0.913545 0
    outer loop
      vertex 8.49797 26.1541 5
      vertex 13.75 23.8157 0
      vertex 8.49797 26.1541 0
    endloop
  endfacet
  facet normal -0.994522 -0.104528 0
    outer loop
      vertex -26.8991 -5.71757 0
      vertex -27.5 0 5
      vertex -27.5 0 0
    endloop
  endfacet
  facet normal -0.994522 -0.104528 0
    outer loop
      vertex -27.5 0 5
      vertex -26.8991 -5.71757 0
      vertex -26.8991 -5.71757 5
    endloop
  endfacet
  facet normal 0.994522 -0.104528 0
    outer loop
      vertex 26.8991 -5.71757 5
      vertex 27.5 0 0
      vertex 27.5 0 5
    endloop
  endfacet
  facet normal 0.994522 -0.104528 0
    outer loop
      vertex 27.5 0 0
      vertex 26.8991 -5.71757 5
      vertex 26.8991 -5.71757 0
    endloop
  endfacet
  facet normal 0.866025 0.5 0
    outer loop
      vertex 25.1225 11.1853 5
      vertex 22.248 16.1641 0
      vertex 22.248 16.1641 5
    endloop
  endfacet
  facet normal 0.866025 0.5 0
    outer loop
      vertex 22.248 16.1641 0
      vertex 25.1225 11.1853 5
      vertex 25.1225 11.1853 0
    endloop
  endfacet
  facet normal -0.866025 0.5 0
    outer loop
      vertex -25.1225 11.1853 0
      vertex -22.248 16.1641 5
      vertex -22.248 16.1641 0
    endloop
  endfacet
  facet normal -0.866025 0.5 0
    outer loop
      vertex -22.248 16.1641 5
      vertex -25.1225 11.1853 0
      vertex -25.1225 11.1853 5
    endloop
  endfacet
  facet normal 0.743145 -0.66913 0
    outer loop
      vertex 18.4011 -20.4365 5
      vertex 22.248 -16.1641 0
      vertex 22.248 -16.1641 5
    endloop
  endfacet
  facet normal 0.743145 -0.66913 0
    outer loop
      vertex 22.248 -16.1641 0
      vertex 18.4011 -20.4365 5
      vertex 18.4011 -20.4365 0
    endloop
  endfacet
  facet normal 0.743145 0.66913 0
    outer loop
      vertex 22.248 16.1641 5
      vertex 18.4011 20.4365 0
      vertex 18.4011 20.4365 5
    endloop
  endfacet
  facet normal 0.743145 0.66913 0
    outer loop
      vertex 18.4011 20.4365 0
      vertex 22.248 16.1641 5
      vertex 22.248 16.1641 0
    endloop
  endfacet
  facet normal 0.207912 -0.978148 0
    outer loop
      vertex 2.87453 -27.3494 0
      vertex 8.49797 -26.1541 5
      vertex 2.87453 -27.3494 5
    endloop
  endfacet
  facet normal 0.207912 -0.978148 0
    outer loop
      vertex 8.49797 -26.1541 5
      vertex 2.87453 -27.3494 0
      vertex 8.49797 -26.1541 0
    endloop
  endfacet
  facet normal 0.994522 0.104528 0
    outer loop
      vertex 27.5 0 5
      vertex 26.8991 5.71757 0
      vertex 26.8991 5.71757 5
    endloop
  endfacet
  facet normal 0.994522 0.104528 0
    outer loop
      vertex 26.8991 5.71757 0
      vertex 27.5 0 5
      vertex 27.5 0 0
    endloop
  endfacet
  facet normal -0.994522 0.104528 0
    outer loop
      vertex -27.5 0 0
      vertex -26.8991 5.71757 5
      vertex -26.8991 5.71757 0
    endloop
  endfacet
  facet normal -0.994522 0.104528 0
    outer loop
      vertex -26.8991 5.71757 5
      vertex -27.5 0 0
      vertex -27.5 0 5
    endloop
  endfacet
  facet normal -0.587785 0.809017 0
    outer loop
      vertex -13.75 23.8157 0
      vertex -18.4011 20.4365 5
      vertex -13.75 23.8157 5
    endloop
  endfacet
  facet normal -0.587785 0.809017 0
    outer loop
      vertex -18.4011 20.4365 5
      vertex -13.75 23.8157 0
      vertex -18.4011 20.4365 0
    endloop
  endfacet
  facet normal -0.951056 0.309017 0
    outer loop
      vertex -26.8991 5.71757 0
      vertex -25.1225 11.1853 5
      vertex -25.1225 11.1853 0
    endloop
  endfacet
  facet normal -0.951056 0.309017 0
    outer loop
      vertex -25.1225 11.1853 5
      vertex -26.8991 5.71757 0
      vertex -26.8991 5.71757 5
    endloop
  endfacet
  facet normal -0.587785 -0.809017 0
    outer loop
      vertex -18.4011 -20.4365 0
      vertex -13.75 -23.8157 5
      vertex -18.4011 -20.4365 5
    endloop
  endfacet
  facet normal -0.587785 -0.809017 -0
    outer loop
      vertex -13.75 -23.8157 5
      vertex -18.4011 -20.4365 0
      vertex -13.75 -23.8157 0
    endloop
  endfacet
  facet normal 0.951056 0.309017 0
    outer loop
      vertex 26.8991 5.71757 5
      vertex 25.1225 11.1853 0
      vertex 25.1225 11.1853 5
    endloop
  endfacet
  facet normal 0.951056 0.309017 0
    outer loop
      vertex 25.1225 11.1853 0
      vertex 26.8991 5.71757 5
      vertex 26.8991 5.71757 0
    endloop
  endfacet
  facet normal -0.743145 -0.66913 0
    outer loop
      vertex -18.4011 -20.4365 0
      vertex -22.248 -16.1641 5
      vertex -22.248 -16.1641 0
    endloop
  endfacet
  facet normal -0.743145 -0.66913 0
    outer loop
      vertex -22.248 -16.1641 5
      vertex -18.4011 -20.4365 0
      vertex -18.4011 -20.4365 5
    endloop
  endfacet
  facet normal 0.406737 -0.913545 0
    outer loop
      vertex 8.49797 -26.1541 0
      vertex 13.75 -23.8157 5
      vertex 8.49797 -26.1541 5
    endloop
  endfacet
  facet normal 0.406737 -0.913545 0
    outer loop
      vertex 13.75 -23.8157 5
      vertex 8.49797 -26.1541 0
      vertex 13.75 -23.8157 0
    endloop
  endfacet
  facet normal 0 1 -0
    outer loop
      vertex 2.87453 27.3494 0
      vertex -2.87453 27.3494 5
      vertex 2.87453 27.3494 5
    endloop
  endfacet
  facet normal 0 1 0
    outer loop
      vertex -2.87453 27.3494 5
      vertex 2.87453 27.3494 0
      vertex -2.87453 27.3494 0
    endloop
  endfacet
  facet normal -0.207912 0.978148 0
    outer loop
      vertex -2.87453 27.3494 0
      vertex -8.49797 26.1541 5
      vertex -2.87453 27.3494 5
    endloop
  endfacet
  facet normal -0.207912 0.978148 0
    outer loop
      vertex -8.49797 26.1541 5
      vertex -2.87453 27.3494 0
      vertex -8.49797 26.1541 0
    endloop
  endfacet
  facet normal 0 0 1
    outer loop
      vertex 20 0 5
      vertex 27.5 0 5
      vertex 26.8991 5.71757 5
    endloop
  endfacet
  facet normal 0 0 1
    outer loop
      vertex 19.563 4.15823 5
      vertex 26.8991 5.71757 5
      vertex 25.1225 11.1853 5
    endloop
  endfacet
  facet normal 0 0 1
    outer loop
      vertex 27.5 0 5
      vertex 20 0 5
      vertex 26.8991 -5.71757 5
    endloop
  endfacet
  facet normal 0 0 1
    outer loop
      vertex 18.2709 8.13473 5
      vertex 25.1225 11.1853 5
      vertex 22.248 16.1641 5
    endloop
  endfacet
  facet normal -0 0 1
    outer loop
      vertex 19.563 -4.15823 5
      vertex 26.8991 -5.71757 5
      vertex 20 0 5
    endloop
  endfacet
  facet normal 0 0 1
    outer loop
      vertex 26.8991 -5.71757 5
      vertex 19.563 -4.15823 5
      vertex 25.1225 -11.1853 5
    endloop
  endfacet
  facet normal 0 0 1
    outer loop
      vertex 26.8991 5.71757 5
      vertex 19.563 4.15823 5
      vertex 20 0 5
    endloop
  endfacet
  facet normal 0 0 1
    outer loop
      vertex 16.1803 11.7557 5
      vertex 22.248 16.1641 5
      vertex 18.4011 20.4365 5
    endloop
  endfacet
  facet normal 0 0 1
    outer loop
      vertex 25.1225 11.1853 5
      vertex 18.2709 8.13473 5
      vertex 19.563 4.15823 5
    endloop
  endfacet
  facet normal 0 0 1
    outer loop
      vertex 22.248 16.1641 5
      vertex 16.1803 11.7557 5
      vertex 18.2709 8.13473 5
    endloop
  endfacet
  facet normal 0 0 1
    outer loop
      vertex 13.3826 14.8629 5
      vertex 18.4011 20.4365 5
      vertex 13.75 23.8157 5
    endloop
  endfacet
  facet normal 0 0 1
    outer loop
      vertex 18.4011 20.4365 5
      vertex 13.3826 14.8629 5
      vertex 16.1803 11.7557 5
    endloop
  endfacet
  facet normal 0 0 1
    outer loop
      vertex 13.75 23.8157 5
      vertex 10 17.3205 5
      vertex 13.3826 14.8629 5
    endloop
  endfacet
  facet normal 0 0 1
    outer loop
      vertex 8.49797 26.1541 5
      vertex 10 17.3205 5
      vertex 13.75 23.8157 5
    endloop
  endfacet
  facet normal 0 0 1
    outer loop
      vertex 8.49797 26.1541 5
      vertex 6.18034 19.0211 5
      vertex 10 17.3205 5
    endloop
  endfacet
  facet normal 0 0 1
    outer loop
      vertex 2 25.5 5
      vertex 8.49797 26.1541 5
      vertex 2.87453 27.3494 5
    endloop
  endfacet
  facet normal 0 0 1
    outer loop
      vertex 2 21.5 5
      vertex 8.49797 26.1541 5
      vertex 2 25.5 5
    endloop
  endfacet
  facet normal 0 0 1
    outer loop
      vertex 8.49797 26.1541 5
      vertex 2 21.5 5
      vertex 6.18034 19.0211 5
    endloop
  endfacet
  facet normal 0 0 1
    outer loop
      vertex 2.87453 27.3494 5
      vertex -2 25.5 5
      vertex 2 25.5 5
    endloop
  endfacet
  facet normal 0 0 1
    outer loop
      vertex -8.49797 26.1541 5
      vertex -2 21.5 5
      vertex -2 25.5 5
    endloop
  endfacet
  facet normal -0 0 1
    outer loop
      vertex -2.87453 27.3494 5
      vertex -2 25.5 5
      vertex 2.87453 27.3494 5
    endloop
  endfacet
  facet normal -0 0 1
    outer loop
      vertex -8.49797 26.1541 5
      vertex -2 25.5 5
      vertex -2.87453 27.3494 5
    endloop
  endfacet
  facet normal 0 0 1
    outer loop
      vertex -2 21.5 5
      vertex -6.18034 19.0211 5
      vertex -2.09057 19.8904 5
    endloop
  endfacet
  facet normal 0 0 1
    outer loop
      vertex -2 21.5 5
      vertex -8.49797 26.1541 5
      vertex -6.18034 19.0211 5
    endloop
  endfacet
  facet normal 0 0 1
    outer loop
      vertex -8.49797 26.1541 5
      vertex -10 17.3205 5
      vertex -6.18034 19.0211 5
    endloop
  endfacet
  facet normal -0 0 1
    outer loop
      vertex -13.75 23.8157 5
      vertex -10 17.3205 5
      vertex -8.49797 26.1541 5
    endloop
  endfacet
  facet normal 0 0 1
    outer loop
      vertex -10 17.3205 5
      vertex -13.75 23.8157 5
      vertex -13.3826 14.8629 5
    endloop
  endfacet
  facet normal -0 0 1
    outer loop
      vertex -18.4011 20.4365 5
      vertex -13.3826 14.8629 5
      vertex -13.75 23.8157 5
    endloop
  endfacet
  facet normal 0 0 1
    outer loop
      vertex -13.3826 14.8629 5
      vertex -18.4011 20.4365 5
      vertex -16.1803 11.7557 5
    endloop
  endfacet
  facet normal -0 0 1
    outer loop
      vertex -22.248 16.1641 5
      vertex -16.1803 11.7557 5
      vertex -18.4011 20.4365 5
    endloop
  endfacet
  facet normal 0 0 1
    outer loop
      vertex -16.1803 11.7557 5
      vertex -22.248 16.1641 5
      vertex -18.2709 8.13473 5
    endloop
  endfacet
  facet normal -0 0 1
    outer loop
      vertex -25.1225 11.1853 5
      vertex -18.2709 8.13473 5
      vertex -22.248 16.1641 5
    endloop
  endfacet
  facet normal 0 0 1
    outer loop
      vertex -18.2709 8.13473 5
      vertex -25.1225 11.1853 5
      vertex -19.563 4.15823 5
    endloop
  endfacet
  facet normal -0 0 1
    outer loop
      vertex 18.2709 -8.13473 5
      vertex 25.1225 -11.1853 5
      vertex 19.563 -4.15823 5
    endloop
  endfacet
  facet normal 0 0 1
    outer loop
      vertex 25.1225 -11.1853 5
      vertex 18.2709 -8.13473 5
      vertex 22.248 -16.1641 5
    endloop
  endfacet
  facet normal -0 0 1
    outer loop
      vertex 16.1803 -11.7557 5
      vertex 22.248 -16.1641 5
      vertex 18.2709 -8.13473 5
    endloop
  endfacet
  facet normal 0 0 1
    outer loop
      vertex 22.248 -16.1641 5
      vertex 16.1803 -11.7557 5
      vertex 18.4011 -20.4365 5
    endloop
  endfacet
  facet normal -0 0 1
    outer loop
      vertex 13.3826 -14.8629 5
      vertex 18.4011 -20.4365 5
      vertex 16.1803 -11.7557 5
    endloop
  endfacet
  facet normal 0 0 1
    outer loop
      vertex 18.4011 -20.4365 5
      vertex 13.3826 -14.8629 5
      vertex 13.75 -23.8157 5
    endloop
  endfacet
  facet normal -0 0 1
    outer loop
      vertex 10 -17.3205 5
      vertex 13.75 -23.8157 5
      vertex 13.3826 -14.8629 5
    endloop
  endfacet
  facet normal 0 0 1
    outer loop
      vertex 10 -17.3205 5
      vertex 8.49797 -26.1541 5
      vertex 13.75 -23.8157 5
    endloop
  endfacet
  facet normal -0 0 1
    outer loop
      vertex 6.18034 -19.0211 5
      vertex 8.49797 -26.1541 5
      vertex 10 -17.3205 5
    endloop
  endfacet
  facet normal 0 0 1
    outer loop
      vertex 6.18034 -19.0211 5
      vertex 2.87453 -27.3494 5
      vertex 8.49797 -26.1541 5
    endloop
  endfacet
  facet normal -0 0 1
    outer loop
      vertex 2.09057 -19.8904 5
      vertex 2.87453 -27.3494 5
      vertex 6.18034 -19.0211 5
    endloop
  endfacet
  facet normal -0 0 1
    outer loop
      vertex -2.09057 -19.8904 5
      vertex 2.87453 -27.3494 5
      vertex 2.09057 -19.8904 5
    endloop
  endfacet
  facet normal 0 0 1
    outer loop
      vertex -2.09057 -19.8904 5
      vertex -2.87453 -27.3494 5
      vertex 2.87453 -27.3494 5
    endloop
  endfacet
  facet normal 0 0 1
    outer loop
      vertex -6.18034 -19.0211 5
      vertex -2.87453 -27.3494 5
      vertex -2.09057 -19.8904 5
    endloop
  endfacet
  facet normal 0 0 1
    outer loop
      vertex -6.18034 -19.0211 5
      vertex -8.49797 -26.1541 5
      vertex -2.87453 -27.3494 5
    endloop
  endfacet
  facet normal 0 0 1
    outer loop
      vertex -10 -17.3205 5
      vertex -8.49797 -26.1541 5
      vertex -6.18034 -19.0211 5
    endloop
  endfacet
  facet normal 0 0 1
    outer loop
      vertex -13.75 -23.8157 5
      vertex -10 -17.3205 5
      vertex -13.3826 -14.8629 5
    endloop
  endfacet
  facet normal 0 0 1
    outer loop
      vertex -10 -17.3205 5
      vertex -13.75 -23.8157 5
      vertex -8.49797 -26.1541 5
    endloop
  endfacet
  facet normal 0 0 1
    outer loop
      vertex -18.4011 -20.4365 5
      vertex -13.3826 -14.8629 5
      vertex -16.1803 -11.7557 5
    endloop
  endfacet
  facet normal 0 0 1
    outer loop
      vertex -22.248 -16.1641 5
      vertex -16.1803 -11.7557 5
      vertex -18.2709 -8.13473 5
    endloop
  endfacet
  facet normal 0 0 1
    outer loop
      vertex -13.3826 -14.8629 5
      vertex -18.4011 -20.4365 5
      vertex -13.75 -23.8157 5
    endloop
  endfacet
  facet normal 0 0 1
    outer loop
      vertex -25.1225 -11.1853 5
      vertex -18.2709 -8.13473 5
      vertex -19.563 -4.15823 5
    endloop
  endfacet
  facet normal 0 0 1
    outer loop
      vertex -26.8991 -5.71757 5
      vertex -19.563 -4.15823 5
      vertex -20 0 5
    endloop
  endfacet
  facet normal -0 0 1
    outer loop
      vertex -26.8991 5.71757 5
      vertex -19.563 4.15823 5
      vertex -25.1225 11.1853 5
    endloop
  endfacet
  facet normal 0 0 1
    outer loop
      vertex -16.1803 -11.7557 5
      vertex -22.248 -16.1641 5
      vertex -18.4011 -20.4365 5
    endloop
  endfacet
  facet normal 0 0 1
    outer loop
      vertex -19.563 4.15823 5
      vertex -26.8991 5.71757 5
      vertex -20 0 5
    endloop
  endfacet
  facet normal 0 0 1
    outer loop
      vertex -18.2709 -8.13473 5
      vertex -25.1225 -11.1853 5
      vertex -22.248 -16.1641 5
    endloop
  endfacet
  facet normal 0 0 1
    outer loop
      vertex -27.5 0 5
      vertex -20 0 5
      vertex -26.8991 5.71757 5
    endloop
  endfacet
  facet normal 0 0 1
    outer loop
      vertex -19.563 -4.15823 5
      vertex -26.8991 -5.71757 5
      vertex -25.1225 -11.1853 5
    endloop
  endfacet
  facet normal 0 0 1
    outer loop
      vertex -20 0 5
      vertex -27.5 0 5
      vertex -26.8991 -5.71757 5
    endloop
  endfacet
  facet normal 0 0 1
    outer loop
      vertex 6.18034 19.0211 5
      vertex 2 21.5 5
      vertex 2.09057 19.8904 5
    endloop
  endfacet
  facet normal -0 0 1
    outer loop
      vertex -2 21.5 5
      vertex 2.09057 19.8904 5
      vertex 2 21.5 5
    endloop
  endfacet
  facet normal 0 0 1
    outer loop
      vertex 2.09057 19.8904 5
      vertex -2 21.5 5
      vertex -2.09057 19.8904 5
    endloop
  endfacet
  facet normal -0.207912 -0.978148 0
    outer loop
      vertex -8.49797 -26.1541 0
      vertex -2.87453 -27.3494 5
      vertex -8.49797 -26.1541 5
    endloop
  endfacet
  facet normal -0.207912 -0.978148 -0
    outer loop
      vertex -2.87453 -27.3494 5
      vertex -8.49797 -26.1541 0
      vertex -2.87453 -27.3494 0
    endloop
  endfacet
  facet normal 0.207912 0.978148 -0
    outer loop
      vertex 8.49797 26.1541 0
      vertex 2.87453 27.3494 5
      vertex 8.49797 26.1541 5
    endloop
  endfacet
  facet normal 0.207912 0.978148 0
    outer loop
      vertex 2.87453 27.3494 5
      vertex 8.49797 26.1541 0
      vertex 2.87453 27.3494 0
    endloop
  endfacet
  facet normal 0 -1 0
    outer loop
      vertex -2.87453 -27.3494 0
      vertex 2.87453 -27.3494 5
      vertex -2.87453 -27.3494 5
    endloop
  endfacet
  facet normal 0 -1 -0
    outer loop
      vertex 2.87453 -27.3494 5
      vertex -2.87453 -27.3494 0
      vertex 2.87453 -27.3494 0
    endloop
  endfacet
  facet normal -0.951056 -0.309017 0
    outer loop
      vertex -25.1225 -11.1853 0
      vertex -26.8991 -5.71757 5
      vertex -26.8991 -5.71757 0
    endloop
  endfacet
  facet normal -0.951056 -0.309017 0
    outer loop
      vertex -26.8991 -5.71757 5
      vertex -25.1225 -11.1853 0
      vertex -25.1225 -11.1853 5
    endloop
  endfacet
  facet normal -0.866025 -0.5 0
    outer loop
      vertex -22.248 -16.1641 0
      vertex -25.1225 -11.1853 5
      vertex -25.1225 -11.1853 0
    endloop
  endfacet
  facet normal -0.866025 -0.5 0
    outer loop
      vertex -25.1225 -11.1853 5
      vertex -22.248 -16.1641 0
      vertex -22.248 -16.1641 5
    endloop
  endfacet
  facet normal -0.406737 0.913545 0
    outer loop
      vertex -8.49797 26.1541 0
      vertex -13.75 23.8157 5
      vertex -8.49797 26.1541 5
    endloop
  endfacet
  facet normal -0.406737 0.913545 0
    outer loop
      vertex -13.75 23.8157 5
      vertex -8.49797 26.1541 0
      vertex -13.75 23.8157 0
    endloop
  endfacet
  facet normal -0.406737 -0.913545 0
    outer loop
      vertex -13.75 -23.8157 0
      vertex -8.49797 -26.1541 5
      vertex -13.75 -23.8157 5
    endloop
  endfacet
  facet normal -0.406737 -0.913545 -0
    outer loop
      vertex -8.49797 -26.1541 5
      vertex -13.75 -23.8157 0
      vertex -8.49797 -26.1541 0
    endloop
  endfacet
  facet normal 0.951056 -0.309017 0
    outer loop
      vertex 25.1225 -11.1853 5
      vertex 26.8991 -5.71757 0
      vertex 26.8991 -5.71757 5
    endloop
  endfacet
  facet normal 0.951056 -0.309017 0
    outer loop
      vertex 26.8991 -5.71757 0
      vertex 25.1225 -11.1853 5
      vertex 25.1225 -11.1853 0
    endloop
  endfacet
  facet normal 0.866025 -0.5 0
    outer loop
      vertex 22.248 -16.1641 5
      vertex 25.1225 -11.1853 0
      vertex 25.1225 -11.1853 5
    endloop
  endfacet
  facet normal 0.866025 -0.5 0
    outer loop
      vertex 25.1225 -11.1853 0
      vertex 22.248 -16.1641 5
      vertex 22.248 -16.1641 0
    endloop
  endfacet
  facet normal 0 0 -1
    outer loop
      vertex 3.15 0 0
      vertex 27.5 0 0
      vertex 26.8991 -5.71757 0
    endloop
  endfacet
  facet normal 0 0 -1
    outer loop
      vertex 3.15 0 0
      vertex 26.8991 -5.71757 0
      vertex 25.1225 -11.1853 0
    endloop
  endfacet
  facet normal 0 0 -1
    outer loop
      vertex 27.5 0 0
      vertex 3.15 0 0
      vertex 26.8991 5.71757 0
    endloop
  endfacet
  facet normal 0 0 -1
    outer loop
      vertex 2.5484 -1.85152 0
      vertex 25.1225 -11.1853 0
      vertex 22.248 -16.1641 0
    endloop
  endfacet
  facet normal -0 0 -1
    outer loop
      vertex 26.8991 5.71757 0
      vertex 3.15 0 0
      vertex 25.1225 11.1853 0
    endloop
  endfacet
  facet normal 0 0 -1
    outer loop
      vertex 2.5484 -1.85152 0
      vertex 22.248 -16.1641 0
      vertex 18.4011 -20.4365 0
    endloop
  endfacet
  facet normal 0 0 -1
    outer loop
      vertex 2.5489 1.85 0
      vertex 25.1225 11.1853 0
      vertex 3.15 0 0
    endloop
  endfacet
  facet normal 0 0 -1
    outer loop
      vertex 2.5484 -1.85152 0
      vertex 18.4011 -20.4365 0
      vertex 13.75 -23.8157 0
    endloop
  endfacet
  facet normal -0 0 -1
    outer loop
      vertex 25.1225 11.1853 0
      vertex 2.5489 1.85 0
      vertex 22.248 16.1641 0
    endloop
  endfacet
  facet normal 0 0 -1
    outer loop
      vertex 0.973403 -2.99583 0
      vertex 13.75 -23.8157 0
      vertex 8.49797 -26.1541 0
    endloop
  endfacet
  facet normal -0 0 -1
    outer loop
      vertex 22.248 16.1641 0
      vertex 2.5489 1.85 0
      vertex 18.4011 20.4365 0
    endloop
  endfacet
  facet normal -0 0 -1
    outer loop
      vertex 18.4011 20.4365 0
      vertex 2.5489 1.85 0
      vertex 13.75 23.8157 0
    endloop
  endfacet
  facet normal 0 0 -1
    outer loop
      vertex 0.973403 -2.99583 0
      vertex 8.49797 -26.1541 0
      vertex 2.87453 -27.3494 0
    endloop
  endfacet
  facet normal 0 0 -1
    outer loop
      vertex 25.1225 -11.1853 0
      vertex 2.5484 -1.85152 0
      vertex 3.15 0 0
    endloop
  endfacet
  facet normal 0 0 -1
    outer loop
      vertex 13.75 -23.8157 0
      vertex 0.973403 -2.99583 0
      vertex 2.5484 -1.85152 0
    endloop
  endfacet
  facet normal 0 0 -1
    outer loop
      vertex 2.87453 -27.3494 0
      vertex -0.973403 -2.99583 0
      vertex 0.973403 -2.99583 0
    endloop
  endfacet
  facet normal 0 0 -1
    outer loop
      vertex -2.87453 -27.3494 0
      vertex -0.973403 -2.99583 0
      vertex 2.87453 -27.3494 0
    endloop
  endfacet
  facet normal 0 0 -1
    outer loop
      vertex -8.49797 -26.1541 0
      vertex -0.973403 -2.99583 0
      vertex -2.87453 -27.3494 0
    endloop
  endfacet
  facet normal 0 0 -1
    outer loop
      vertex -13.75 -23.8157 0
      vertex -0.973403 -2.99583 0
      vertex -8.49797 -26.1541 0
    endloop
  endfacet
  facet normal -0 0 -1
    outer loop
      vertex -0.973403 -2.99583 0
      vertex -13.75 -23.8157 0
      vertex -2.5484 -1.85152 0
    endloop
  endfacet
  facet normal -0 0 -1
    outer loop
      vertex 13.75 23.8157 0
      vertex 2.5489 1.85 0
      vertex 8.49797 26.1541 0
    endloop
  endfacet
  facet normal -0 0 -1
    outer loop
      vertex 8.49797 26.1541 0
      vertex 2.5489 1.85 0
      vertex 2.87453 27.3494 0
    endloop
  endfacet
  facet normal 0 0 -1
    outer loop
      vertex -2.5489 1.85 0
      vertex 2.87453 27.3494 0
      vertex 2.5489 1.85 0
    endloop
  endfacet
  facet normal 0 0 -1
    outer loop
      vertex -2.5489 1.85 0
      vertex -2.87453 27.3494 0
      vertex 2.87453 27.3494 0
    endloop
  endfacet
  facet normal 0 0 -1
    outer loop
      vertex -25.1225 11.1853 0
      vertex -2.5489 1.85 0
      vertex -3.15 0 0
    endloop
  endfacet
  facet normal 0 0 -1
    outer loop
      vertex -18.4011 -20.4365 0
      vertex -2.5484 -1.85152 0
      vertex -13.75 -23.8157 0
    endloop
  endfacet
  facet normal 0 0 -1
    outer loop
      vertex -2.5489 1.85 0
      vertex -8.49797 26.1541 0
      vertex -2.87453 27.3494 0
    endloop
  endfacet
  facet normal 0 0 -1
    outer loop
      vertex -2.5489 1.85 0
      vertex -13.75 23.8157 0
      vertex -8.49797 26.1541 0
    endloop
  endfacet
  facet normal 0 0 -1
    outer loop
      vertex -22.248 -16.1641 0
      vertex -2.5484 -1.85152 0
      vertex -18.4011 -20.4365 0
    endloop
  endfacet
  facet normal 0 0 -1
    outer loop
      vertex -25.1225 -11.1853 0
      vertex -2.5484 -1.85152 0
      vertex -22.248 -16.1641 0
    endloop
  endfacet
  facet normal 0 0 -1
    outer loop
      vertex -2.5489 1.85 0
      vertex -18.4011 20.4365 0
      vertex -13.75 23.8157 0
    endloop
  endfacet
  facet normal -0 0 -1
    outer loop
      vertex -2.5484 -1.85152 0
      vertex -25.1225 -11.1853 0
      vertex -3.15 0 0
    endloop
  endfacet
  facet normal 0 0 -1
    outer loop
      vertex -2.5489 1.85 0
      vertex -22.248 16.1641 0
      vertex -18.4011 20.4365 0
    endloop
  endfacet
  facet normal 0 0 -1
    outer loop
      vertex -26.8991 -5.71757 0
      vertex -3.15 0 0
      vertex -25.1225 -11.1853 0
    endloop
  endfacet
  facet normal 0 0 -1
    outer loop
      vertex -2.5489 1.85 0
      vertex -25.1225 11.1853 0
      vertex -22.248 16.1641 0
    endloop
  endfacet
  facet normal 0 0 -1
    outer loop
      vertex -27.5 0 0
      vertex -3.15 0 0
      vertex -26.8991 -5.71757 0
    endloop
  endfacet
  facet normal 0 0 -1
    outer loop
      vertex -3.15 0 0
      vertex -26.8991 5.71757 0
      vertex -25.1225 11.1853 0
    endloop
  endfacet
  facet normal 0 0 -1
    outer loop
      vertex -3.15 0 0
      vertex -27.5 0 0
      vertex -26.8991 5.71757 0
    endloop
  endfacet
  facet normal 0.587785 -0.809017 0
    outer loop
      vertex 13.75 -23.8157 0
      vertex 18.4011 -20.4365 5
      vertex 13.75 -23.8157 5
    endloop
  endfacet
  facet normal 0.587785 -0.809017 0
    outer loop
      vertex 18.4011 -20.4365 5
      vertex 13.75 -23.8157 0
      vertex 18.4011 -20.4365 0
    endloop
  endfacet
  facet normal -0.743145 0.66913 0
    outer loop
      vertex -22.248 16.1641 0
      vertex -18.4011 20.4365 5
      vertex -18.4011 20.4365 0
    endloop
  endfacet
  facet normal -0.743145 0.66913 0
    outer loop
      vertex -18.4011 20.4365 5
      vertex -22.248 16.1641 0
      vertex -22.248 16.1641 5
    endloop
  endfacet
  facet normal -1 0 0
    outer loop
      vertex 2 21.5 3
      vertex 2 25.5 5
      vertex 2 25.5 3
    endloop
  endfacet
  facet normal -1 -0 0
    outer loop
      vertex 2 25.5 5
      vertex 2 21.5 3
      vertex 2 21.5 5
    endloop
  endfacet
  facet normal -0 0 1
    outer loop
      vertex -2 25.5 3
      vertex 2 21.5 3
      vertex 2 25.5 3
    endloop
  endfacet
  facet normal 0 0 1
    outer loop
      vertex 2 21.5 3
      vertex -2 25.5 3
      vertex -2 21.5 3
    endloop
  endfacet
  facet normal 1 -0 0
    outer loop
      vertex -2 21.5 5
      vertex -2 25.5 3
      vertex -2 25.5 5
    endloop
  endfacet
  facet normal 1 0 0
    outer loop
      vertex -2 25.5 3
      vertex -2 21.5 5
      vertex -2 21.5 3
    endloop
  endfacet
  facet normal 0 -1 0
    outer loop
      vertex -2 25.5 3
      vertex 2 25.5 5
      vertex -2 25.5 5
    endloop
  endfacet
  facet normal 0 -1 -0
    outer loop
      vertex 2 25.5 5
      vertex -2 25.5 3
      vertex 2 25.5 3
    endloop
  endfacet
  facet normal 0 1 -0
    outer loop
      vertex 2 21.5 3
      vertex -2 21.5 5
      vertex 2 21.5 5
    endloop
  endfacet
  facet normal 0 1 0
    outer loop
      vertex -2 21.5 5
      vertex 2 21.5 3
      vertex -2 21.5 3
    endloop
  endfacet
  facet normal -0.951056 -0.309017 0
    outer loop
      vertex 3.15 0 0
      vertex 2.5489 1.85 33
      vertex 2.5489 1.85 0
    endloop
  endfacet
  facet normal -0.951056 -0.309017 0
    outer loop
      vertex 2.5489 1.85 33
      vertex 3.15 0 0
      vertex 3.15 0 33
    endloop
  endfacet
  facet normal 0.951056 0.309017 0
    outer loop
      vertex -2.5484 -1.85152 33
      vertex -3.15 0 0
      vertex -3.15 0 33
    endloop
  endfacet
  facet normal 0.951056 0.309017 0
    outer loop
      vertex -3.15 0 0
      vertex -2.5484 -1.85152 33
      vertex -2.5484 -1.85152 0
    endloop
  endfacet
  facet normal -0.587785 0.809017 0
    outer loop
      vertex 2.5484 -1.85152 0
      vertex 0.973403 -2.99583 33
      vertex 2.5484 -1.85152 33
    endloop
  endfacet
  facet normal -0.587785 0.809017 0
    outer loop
      vertex 0.973403 -2.99583 33
      vertex 2.5484 -1.85152 0
      vertex 0.973403 -2.99583 0
    endloop
  endfacet
  facet normal 0 1 -0
    outer loop
      vertex 0.973403 -2.99583 0
      vertex -0.973403 -2.99583 33
      vertex 0.973403 -2.99583 33
    endloop
  endfacet
  facet normal 0 1 0
    outer loop
      vertex -0.973403 -2.99583 33
      vertex 0.973403 -2.99583 0
      vertex -0.973403 -2.99583 0
    endloop
  endfacet
  facet normal 0.951056 -0.309017 0
    outer loop
      vertex -3.15 0 33
      vertex -2.5489 1.85 0
      vertex -2.5489 1.85 33
    endloop
  endfacet
  facet normal 0.951056 -0.309017 0
    outer loop
      vertex -2.5489 1.85 0
      vertex -3.15 0 33
      vertex -3.15 0 0
    endloop
  endfacet
  facet normal -0.951056 0.309017 0
    outer loop
      vertex 2.5484 -1.85152 0
      vertex 3.15 0 33
      vertex 3.15 0 0
    endloop
  endfacet
  facet normal -0.951056 0.309017 0
    outer loop
      vertex 3.15 0 33
      vertex 2.5484 -1.85152 0
      vertex 2.5484 -1.85152 33
    endloop
  endfacet
  facet normal 0.587785 0.809017 -0
    outer loop
      vertex -0.973403 -2.99583 0
      vertex -2.5484 -1.85152 33
      vertex -0.973403 -2.99583 33
    endloop
  endfacet
  facet normal 0.587785 0.809017 0
    outer loop
      vertex -2.5484 -1.85152 33
      vertex -0.973403 -2.99583 0
      vertex -2.5484 -1.85152 0
    endloop
  endfacet
  facet normal 0 0 -1
    outer loop
      vertex 2.5484 -1.85152 33
      vertex 2.5489 1.85 33
      vertex 3.15 0 33
    endloop
  endfacet
  facet normal 0 0 -1
    outer loop
      vertex 0.973403 -2.99583 33
      vertex 2.5489 1.85 33
      vertex 2.5484 -1.85152 33
    endloop
  endfacet
  facet normal 0 0 -1
    outer loop
      vertex -0.973403 -2.99583 33
      vertex 2.5489 1.85 33
      vertex 0.973403 -2.99583 33
    endloop
  endfacet
  facet normal 0 0 -1
    outer loop
      vertex -2.5484 -1.85152 33
      vertex 2.5489 1.85 33
      vertex -0.973403 -2.99583 33
    endloop
  endfacet
  facet normal 0 0 -1
    outer loop
      vertex -2.5484 -1.85152 33
      vertex -2.5489 1.85 33
      vertex 2.5489 1.85 33
    endloop
  endfacet
  facet normal 0 -0 -1
    outer loop
      vertex -2.5489 1.85 33
      vertex -2.5484 -1.85152 33
      vertex -3.15 0 33
    endloop
  endfacet
  facet normal 0 -1 0
    outer loop
      vertex -2.5489 1.85 0
      vertex 2.5489 1.85 33
      vertex -2.5489 1.85 33
    endloop
  endfacet
  facet normal 0 -1 -0
    outer loop
      vertex 2.5489 1.85 33
      vertex -2.5489 1.85 0
      vertex 2.5489 1.85 0
    endloop
  endfacet
  facet normal -0.743145 -0.669131 0
    outer loop
      vertex -13.3826 -14.8629 5
      vertex -16.1803 -11.7557 35
      vertex -16.1803 -11.7557 5
    endloop
  endfacet
  facet normal -0.743145 -0.669131 0
    outer loop
      vertex -16.1803 -11.7557 35
      vertex -13.3826 -14.8629 5
      vertex -13.3826 -14.8629 35
    endloop
  endfacet
  facet normal 0.951057 0.309017 0
    outer loop
      vertex 19.563 4.15823 35
      vertex 18.2709 8.13473 5
      vertex 18.2709 8.13473 35
    endloop
  endfacet
  facet normal 0.951057 0.309017 0
    outer loop
      vertex 18.2709 8.13473 5
      vertex 19.563 4.15823 35
      vertex 19.563 4.15823 5
    endloop
  endfacet
  facet normal 0.994522 0.104529 0
    outer loop
      vertex 20 0 35
      vertex 19.563 4.15823 5
      vertex 19.563 4.15823 35
    endloop
  endfacet
  facet normal 0.994522 0.104529 0
    outer loop
      vertex 19.563 4.15823 5
      vertex 20 0 35
      vertex 20 0 5
    endloop
  endfacet
  facet normal 0.866026 0.5 0
    outer loop
      vertex 18.2709 8.13473 35
      vertex 16.1803 11.7557 5
      vertex 16.1803 11.7557 35
    endloop
  endfacet
  facet normal 0.866026 0.5 0
    outer loop
      vertex 16.1803 11.7557 5
      vertex 18.2709 8.13473 35
      vertex 18.2709 8.13473 5
    endloop
  endfacet
  facet normal 0.951057 -0.309017 0
    outer loop
      vertex 18.2709 -8.13473 35
      vertex 19.563 -4.15823 5
      vertex 19.563 -4.15823 35
    endloop
  endfacet
  facet normal 0.951057 -0.309017 0
    outer loop
      vertex 19.563 -4.15823 5
      vertex 18.2709 -8.13473 35
      vertex 18.2709 -8.13473 5
    endloop
  endfacet
  facet normal 0.587785 -0.809017 0
    outer loop
      vertex 10 -17.3205 5
      vertex 13.3826 -14.8629 35
      vertex 10 -17.3205 35
    endloop
  endfacet
  facet normal 0.587785 -0.809017 0
    outer loop
      vertex 13.3826 -14.8629 35
      vertex 10 -17.3205 5
      vertex 13.3826 -14.8629 5
    endloop
  endfacet
  facet normal 0.743145 -0.669131 0
    outer loop
      vertex 13.3826 -14.8629 35
      vertex 16.1803 -11.7557 5
      vertex 16.1803 -11.7557 35
    endloop
  endfacet
  facet normal 0.743145 -0.669131 0
    outer loop
      vertex 16.1803 -11.7557 5
      vertex 13.3826 -14.8629 35
      vertex 13.3826 -14.8629 5
    endloop
  endfacet
  facet normal 0.994522 -0.104529 0
    outer loop
      vertex 19.563 -4.15823 35
      vertex 20 0 5
      vertex 20 0 35
    endloop
  endfacet
  facet normal 0.994522 -0.104529 0
    outer loop
      vertex 20 0 5
      vertex 19.563 -4.15823 35
      vertex 19.563 -4.15823 5
    endloop
  endfacet
  facet normal -0.406737 -0.913545 0
    outer loop
      vertex -10 -17.3205 5
      vertex -6.18034 -19.0211 35
      vertex -10 -17.3205 35
    endloop
  endfacet
  facet normal -0.406737 -0.913545 -0
    outer loop
      vertex -6.18034 -19.0211 35
      vertex -10 -17.3205 5
      vertex -6.18034 -19.0211 5
    endloop
  endfacet
  facet normal 0.406737 0.913545 -0
    outer loop
      vertex 10 17.3205 5
      vertex 6.18034 19.0211 35
      vertex 10 17.3205 35
    endloop
  endfacet
  facet normal 0.406737 0.913545 0
    outer loop
      vertex 6.18034 19.0211 35
      vertex 10 17.3205 5
      vertex 6.18034 19.0211 5
    endloop
  endfacet
  facet normal 0.743145 0.669131 0
    outer loop
      vertex 16.1803 11.7557 35
      vertex 13.3826 14.8629 5
      vertex 13.3826 14.8629 35
    endloop
  endfacet
  facet normal 0.743145 0.669131 0
    outer loop
      vertex 13.3826 14.8629 5
      vertex 16.1803 11.7557 35
      vertex 16.1803 11.7557 5
    endloop
  endfacet
  facet normal -0.587785 -0.809017 0
    outer loop
      vertex -13.3826 -14.8629 5
      vertex -10 -17.3205 35
      vertex -13.3826 -14.8629 35
    endloop
  endfacet
  facet normal -0.587785 -0.809017 -0
    outer loop
      vertex -10 -17.3205 35
      vertex -13.3826 -14.8629 5
      vertex -10 -17.3205 5
    endloop
  endfacet
  facet normal -0.743145 0.669131 0
    outer loop
      vertex -16.1803 11.7557 5
      vertex -13.3826 14.8629 35
      vertex -13.3826 14.8629 5
    endloop
  endfacet
  facet normal -0.743145 0.669131 0
    outer loop
      vertex -13.3826 14.8629 35
      vertex -16.1803 11.7557 5
      vertex -16.1803 11.7557 35
    endloop
  endfacet
  facet normal 0 1 -0
    outer loop
      vertex 2.09057 19.8904 5
      vertex -2.09057 19.8904 35
      vertex 2.09057 19.8904 35
    endloop
  endfacet
  facet normal 0 1 0
    outer loop
      vertex -2.09057 19.8904 35
      vertex 2.09057 19.8904 5
      vertex -2.09057 19.8904 5
    endloop
  endfacet
  facet normal 0.406737 -0.913545 0
    outer loop
      vertex 6.18034 -19.0211 5
      vertex 10 -17.3205 35
      vertex 6.18034 -19.0211 35
    endloop
  endfacet
  facet normal 0.406737 -0.913545 0
    outer loop
      vertex 10 -17.3205 35
      vertex 6.18034 -19.0211 5
      vertex 10 -17.3205 5
    endloop
  endfacet
  facet normal 0.207912 -0.978148 0
    outer loop
      vertex 2.09057 -19.8904 5
      vertex 6.18034 -19.0211 35
      vertex 2.09057 -19.8904 35
    endloop
  endfacet
  facet normal 0.207912 -0.978148 0
    outer loop
      vertex 6.18034 -19.0211 35
      vertex 2.09057 -19.8904 5
      vertex 6.18034 -19.0211 5
    endloop
  endfacet
  facet normal -0.951057 0.309017 0
    outer loop
      vertex -19.563 4.15823 5
      vertex -18.2709 8.13473 35
      vertex -18.2709 8.13473 5
    endloop
  endfacet
  facet normal -0.951057 0.309017 0
    outer loop
      vertex -18.2709 8.13473 35
      vertex -19.563 4.15823 5
      vertex -19.563 4.15823 35
    endloop
  endfacet
  facet normal -0.951057 -0.309017 0
    outer loop
      vertex -18.2709 -8.13473 5
      vertex -19.563 -4.15823 35
      vertex -19.563 -4.15823 5
    endloop
  endfacet
  facet normal -0.951057 -0.309017 0
    outer loop
      vertex -19.563 -4.15823 35
      vertex -18.2709 -8.13473 5
      vertex -18.2709 -8.13473 35
    endloop
  endfacet
  facet normal -0.406737 0.913545 0
    outer loop
      vertex -6.18034 19.0211 5
      vertex -10 17.3205 35
      vertex -6.18034 19.0211 35
    endloop
  endfacet
  facet normal -0.406737 0.913545 0
    outer loop
      vertex -10 17.3205 35
      vertex -6.18034 19.0211 5
      vertex -10 17.3205 5
    endloop
  endfacet
  facet normal 0 0 1
    outer loop
      vertex 19.563 4.15823 35
      vertex 19.563 -4.15823 35
      vertex 20 0 35
    endloop
  endfacet
  facet normal 0 0 1
    outer loop
      vertex 18.2709 8.13473 35
      vertex 19.563 -4.15823 35
      vertex 19.563 4.15823 35
    endloop
  endfacet
  facet normal 0 0 1
    outer loop
      vertex 18.2709 8.13473 35
      vertex 18.2709 -8.13473 35
      vertex 19.563 -4.15823 35
    endloop
  endfacet
  facet normal 0 0 1
    outer loop
      vertex 16.1803 11.7557 35
      vertex 18.2709 -8.13473 35
      vertex 18.2709 8.13473 35
    endloop
  endfacet
  facet normal 0 0 1
    outer loop
      vertex 16.1803 11.7557 35
      vertex 16.1803 -11.7557 35
      vertex 18.2709 -8.13473 35
    endloop
  endfacet
  facet normal 0 0 1
    outer loop
      vertex 13.3826 14.8629 35
      vertex 16.1803 -11.7557 35
      vertex 16.1803 11.7557 35
    endloop
  endfacet
  facet normal 0 0 1
    outer loop
      vertex 13.3826 14.8629 35
      vertex 13.3826 -14.8629 35
      vertex 16.1803 -11.7557 35
    endloop
  endfacet
  facet normal 0 0 1
    outer loop
      vertex 10 17.3205 35
      vertex 13.3826 -14.8629 35
      vertex 13.3826 14.8629 35
    endloop
  endfacet
  facet normal 0 0 1
    outer loop
      vertex 10 17.3205 35
      vertex 10 -17.3205 35
      vertex 13.3826 -14.8629 35
    endloop
  endfacet
  facet normal 0 0 1
    outer loop
      vertex 6.18034 19.0211 35
      vertex 10 -17.3205 35
      vertex 10 17.3205 35
    endloop
  endfacet
  facet normal 0 0 1
    outer loop
      vertex 6.18034 19.0211 35
      vertex 6.18034 -19.0211 35
      vertex 10 -17.3205 35
    endloop
  endfacet
  facet normal 0 0 1
    outer loop
      vertex 2.09057 19.8904 35
      vertex 6.18034 -19.0211 35
      vertex 6.18034 19.0211 35
    endloop
  endfacet
  facet normal 0 0 1
    outer loop
      vertex 2.09057 19.8904 35
      vertex 2.09057 -19.8904 35
      vertex 6.18034 -19.0211 35
    endloop
  endfacet
  facet normal -0 0 1
    outer loop
      vertex -2.09057 19.8904 35
      vertex 2.09057 -19.8904 35
      vertex 2.09057 19.8904 35
    endloop
  endfacet
  facet normal 0 0 1
    outer loop
      vertex -2.09057 19.8904 35
      vertex -2.09057 -19.8904 35
      vertex 2.09057 -19.8904 35
    endloop
  endfacet
  facet normal -0 0 1
    outer loop
      vertex -6.18034 19.0211 35
      vertex -2.09057 -19.8904 35
      vertex -2.09057 19.8904 35
    endloop
  endfacet
  facet normal 0 0 1
    outer loop
      vertex -6.18034 19.0211 35
      vertex -6.18034 -19.0211 35
      vertex -2.09057 -19.8904 35
    endloop
  endfacet
  facet normal -0 0 1
    outer loop
      vertex -10 17.3205 35
      vertex -6.18034 -19.0211 35
      vertex -6.18034 19.0211 35
    endloop
  endfacet
  facet normal 0 0 1
    outer loop
      vertex -10 17.3205 35
      vertex -10 -17.3205 35
      vertex -6.18034 -19.0211 35
    endloop
  endfacet
  facet normal -0 0 1
    outer loop
      vertex -13.3826 14.8629 35
      vertex -10 -17.3205 35
      vertex -10 17.3205 35
    endloop
  endfacet
  facet normal 0 0 1
    outer loop
      vertex -13.3826 14.8629 35
      vertex -13.3826 -14.8629 35
      vertex -10 -17.3205 35
    endloop
  endfacet
  facet normal -0 0 1
    outer loop
      vertex -16.1803 11.7557 35
      vertex -13.3826 -14.8629 35
      vertex -13.3826 14.8629 35
    endloop
  endfacet
  facet normal 0 0 1
    outer loop
      vertex -16.1803 11.7557 35
      vertex -16.1803 -11.7557 35
      vertex -13.3826 -14.8629 35
    endloop
  endfacet
  facet normal -0 0 1
    outer loop
      vertex -18.2709 8.13473 35
      vertex -16.1803 -11.7557 35
      vertex -16.1803 11.7557 35
    endloop
  endfacet
  facet normal 0 0 1
    outer loop
      vertex -18.2709 8.13473 35
      vertex -18.2709 -8.13473 35
      vertex -16.1803 -11.7557 35
    endloop
  endfacet
  facet normal -0 0 1
    outer loop
      vertex -19.563 4.15823 35
      vertex -18.2709 -8.13473 35
      vertex -18.2709 8.13473 35
    endloop
  endfacet
  facet normal 0 0 1
    outer loop
      vertex -19.563 4.15823 35
      vertex -19.563 -4.15823 35
      vertex -18.2709 -8.13473 35
    endloop
  endfacet
  facet normal 0 -0 1
    outer loop
      vertex -19.563 -4.15823 35
      vertex -19.563 4.15823 35
      vertex -20 0 35
    endloop
  endfacet
  facet normal -0.207912 -0.978148 0
    outer loop
      vertex -6.18034 -19.0211 5
      vertex -2.09057 -19.8904 35
      vertex -6.18034 -19.0211 35
    endloop
  endfacet
  facet normal -0.207912 -0.978148 -0
    outer loop
      vertex -2.09057 -19.8904 35
      vertex -6.18034 -19.0211 5
      vertex -2.09057 -19.8904 5
    endloop
  endfacet
  facet normal 0.207912 0.978148 -0
    outer loop
      vertex 6.18034 19.0211 5
      vertex 2.09057 19.8904 35
      vertex 6.18034 19.0211 35
    endloop
  endfacet
  facet normal 0.207912 0.978148 0
    outer loop
      vertex 2.09057 19.8904 35
      vertex 6.18034 19.0211 5
      vertex 2.09057 19.8904 5
    endloop
  endfacet
  facet normal -0.994522 -0.104529 0
    outer loop
      vertex -19.563 -4.15823 5
      vertex -20 0 35
      vertex -20 0 5
    endloop
  endfacet
  facet normal -0.994522 -0.104529 0
    outer loop
      vertex -20 0 35
      vertex -19.563 -4.15823 5
      vertex -19.563 -4.15823 35
    endloop
  endfacet
  facet normal -0.994522 0.104529 0
    outer loop
      vertex -20 0 5
      vertex -19.563 4.15823 35
      vertex -19.563 4.15823 5
    endloop
  endfacet
  facet normal -0.994522 0.104529 0
    outer loop
      vertex -19.563 4.15823 35
      vertex -20 0 5
      vertex -20 0 35
    endloop
  endfacet
  facet normal -0.866026 -0.5 0
    outer loop
      vertex -16.1803 -11.7557 5
      vertex -18.2709 -8.13473 35
      vertex -18.2709 -8.13473 5
    endloop
  endfacet
  facet normal -0.866026 -0.5 0
    outer loop
      vertex -18.2709 -8.13473 35
      vertex -16.1803 -11.7557 5
      vertex -16.1803 -11.7557 35
    endloop
  endfacet
  facet normal -0.866026 0.5 0
    outer loop
      vertex -18.2709 8.13473 5
      vertex -16.1803 11.7557 35
      vertex -16.1803 11.7557 5
    endloop
  endfacet
  facet normal -0.866026 0.5 0
    outer loop
      vertex -16.1803 11.7557 35
      vertex -18.2709 8.13473 5
      vertex -18.2709 8.13473 35
    endloop
  endfacet
  facet normal 0.866026 -0.5 0
    outer loop
      vertex 16.1803 -11.7557 35
      vertex 18.2709 -8.13473 5
      vertex 18.2709 -8.13473 35
    endloop
  endfacet
  facet normal 0.866026 -0.5 0
    outer loop
      vertex 18.2709 -8.13473 5
      vertex 16.1803 -11.7557 35
      vertex 16.1803 -11.7557 5
    endloop
  endfacet
  facet normal 0.587785 0.809017 -0
    outer loop
      vertex 13.3826 14.8629 5
      vertex 10 17.3205 35
      vertex 13.3826 14.8629 35
    endloop
  endfacet
  facet normal 0.587785 0.809017 0
    outer loop
      vertex 10 17.3205 35
      vertex 13.3826 14.8629 5
      vertex 10 17.3205 5
    endloop
  endfacet
  facet normal -0.587785 0.809017 0
    outer loop
      vertex -10 17.3205 5
      vertex -13.3826 14.8629 35
      vertex -10 17.3205 35
    endloop
  endfacet
  facet normal -0.587785 0.809017 0
    outer loop
      vertex -13.3826 14.8629 35
      vertex -10 17.3205 5
      vertex -13.3826 14.8629 5
    endloop
  endfacet
  facet normal -0.207912 0.978148 0
    outer loop
      vertex -2.09057 19.8904 5
      vertex -6.18034 19.0211 35
      vertex -2.09057 19.8904 35
    endloop
  endfacet
  facet normal -0.207912 0.978148 0
    outer loop
      vertex -6.18034 19.0211 35
      vertex -2.09057 19.8904 5
      vertex -6.18034 19.0211 5
    endloop
  endfacet
  facet normal 0 -1 0
    outer loop
      vertex -2.09057 -19.8904 5
      vertex 2.09057 -19.8904 35
      vertex -2.09057 -19.8904 35
    endloop
  endfacet
  facet normal 0 -1 -0
    outer loop
      vertex 2.09057 -19.8904 35
      vertex -2.09057 -19.8904 5
      vertex 2.09057 -19.8904 5
    endloop
  endfacet
endsolid OpenSCAD_Model
